<svg id="svg" version="1.1" xmlns="http://www.w3.org/2000/svg" xmlns:xlink="http://www.w3.org/1999/xlink" width="50" height="58" viewBox="0, 0, 400,465.6126482213439"><g id="svgg"><path id="path0" d="M161.000 54.997 C 159.092 55.667,156.956 57.976,156.403 59.966 C 155.902 61.768,155.881 241.798,156.381 244.400 C 157.185 248.586,162.020 251.004,166.833 249.629 C 168.245 249.226,170.930 248.488,172.800 247.989 C 189.319 243.587,214.514 234.172,230.400 226.467 C 236.978 223.277,237.613 222.829,238.765 220.583 L 239.595 218.966 239.603 139.474 C 239.612 51.061,239.878 58.928,236.793 56.287 C 235.897 55.520,234.610 54.782,233.932 54.646 C 231.108 54.082,162.670 54.411,161.000 54.997 M225.561 242.522 C 223.010 243.665,220.130 244.943,219.161 245.361 C 218.193 245.780,216.410 246.563,215.200 247.102 C 213.990 247.641,211.830 248.503,210.400 249.017 C 208.970 249.532,206.090 250.607,204.000 251.404 C 194.764 254.930,179.698 259.893,171.800 262.010 C 168.718 262.836,164.131 264.132,162.086 264.753 C 159.863 265.428,158.214 266.683,157.185 268.480 L 156.200 270.200 156.085 293.100 C 155.948 320.150,156.029 320.664,160.707 322.619 C 162.738 323.468,233.344 323.493,234.978 322.645 C 236.709 321.747,238.429 320.029,239.025 318.601 C 239.746 316.877,239.923 247.303,239.212 245.432 C 237.191 240.115,232.953 239.212,225.561 242.522 " stroke="none" fill="#f19407" fill-rule="evenodd"></path><path id="path1" d="M255.400 55.149 C 254.740 55.565,253.480 56.655,252.600 57.572 L 251.000 59.238 251.000 131.719 L 251.000 204.200 251.969 206.169 C 253.603 209.488,254.311 209.916,258.894 210.351 C 260.656 210.519,261.645 210.460,261.752 210.182 C 261.841 209.948,262.789 209.316,263.857 208.778 C 264.926 208.240,265.890 207.698,266.000 207.574 C 266.327 207.203,269.926 204.800,270.154 204.800 C 270.269 204.800,273.926 202.432,278.280 199.537 C 282.633 196.642,286.512 194.191,286.898 194.090 C 287.284 193.989,287.606 193.703,287.613 193.453 C 287.620 193.204,288.835 192.194,290.313 191.209 C 291.791 190.224,293.090 189.313,293.200 189.184 C 293.474 188.863,301.543 182.698,302.341 182.200 C 302.693 181.980,303.166 181.602,303.391 181.359 C 303.756 180.965,306.255 178.913,311.318 174.850 C 312.243 174.107,314.143 172.487,315.541 171.250 C 316.938 170.012,318.333 168.942,318.641 168.871 C 318.948 168.800,319.200 168.557,319.200 168.331 C 319.200 168.105,320.861 166.364,322.891 164.460 C 332.129 155.798,333.762 153.968,334.414 151.546 C 334.643 150.696,335.004 150.000,335.215 150.000 C 335.427 150.000,335.600 149.640,335.600 149.200 C 335.600 148.760,335.420 148.400,335.200 148.400 C 334.967 148.400,334.800 147.067,334.800 145.200 C 334.800 143.333,334.967 142.000,335.200 142.000 C 335.713 142.000,335.721 140.681,335.211 140.171 C 334.966 139.926,334.781 124.930,334.711 99.591 L 334.600 59.400 333.420 57.761 C 330.947 54.327,334.473 54.613,293.200 54.497 C 257.912 54.397,256.557 54.421,255.400 55.149 M330.600 170.870 C 329.500 171.923,328.488 172.788,328.352 172.792 C 328.215 172.796,326.235 174.654,323.952 176.920 C 319.879 180.962,314.174 186.141,311.800 187.951 C 311.140 188.454,309.879 189.526,308.999 190.333 C 305.746 193.313,302.687 195.600,301.954 195.600 C 301.539 195.600,301.200 195.838,301.200 196.128 C 301.200 196.418,300.793 197.003,300.297 197.428 C 298.868 198.649,292.000 203.741,289.800 205.211 C 288.700 205.946,287.710 206.665,287.600 206.809 C 287.158 207.387,281.774 210.800,281.304 210.800 C 281.027 210.800,280.800 210.966,280.800 211.168 C 280.800 211.937,262.176 223.756,261.562 223.377 C 261.363 223.254,261.200 223.329,261.200 223.545 C 261.200 223.761,259.664 224.880,257.787 226.031 C 254.334 228.149,252.336 230.020,251.473 231.944 C 250.805 233.435,250.557 313.161,251.210 316.559 C 251.727 319.248,252.769 320.866,254.794 322.126 L 256.200 323.000 292.896 323.200 C 322.031 323.359,329.631 323.297,329.783 322.900 C 329.889 322.625,330.230 322.400,330.541 322.400 C 330.852 322.400,331.757 321.680,332.552 320.800 C 333.347 319.920,334.171 319.200,334.382 319.200 C 334.626 319.200,334.776 299.139,334.791 264.300 C 334.806 228.767,334.953 209.353,335.207 209.267 C 335.724 209.091,335.717 203.720,335.200 203.400 C 334.945 203.242,334.800 197.663,334.800 187.976 C 334.800 178.125,334.940 172.800,335.200 172.800 C 335.829 172.800,335.667 171.711,335.000 171.455 C 334.670 171.329,334.400 170.949,334.400 170.613 C 334.400 170.276,334.139 170.000,333.820 170.000 C 333.501 170.000,333.096 169.765,332.920 169.478 C 332.685 169.095,332.071 169.463,330.600 170.870 " stroke="none" fill="#3daa36" fill-rule="evenodd"></path><path id="path2" d="M39.904 8.888 C 39.806 9.181,39.088 9.350,38.105 9.310 C 37.001 9.266,36.396 9.433,36.247 9.823 C 36.125 10.140,35.670 10.400,35.236 10.400 C 34.802 10.400,34.328 10.592,34.183 10.827 C 34.038 11.062,33.682 11.164,33.393 11.053 C 33.103 10.941,32.773 11.092,32.660 11.388 C 32.547 11.683,31.902 12.046,31.227 12.194 C 30.552 12.342,30.000 12.629,30.000 12.832 C 30.000 13.034,29.595 13.201,29.100 13.203 C 28.520 13.204,27.957 13.631,27.519 14.403 C 27.096 15.144,26.513 15.600,25.985 15.600 C 25.015 15.600,22.253 18.239,22.614 18.822 C 22.916 19.311,22.024 20.211,20.881 20.574 C 20.184 20.795,20.050 21.060,20.243 21.827 C 20.430 22.574,20.328 22.800,19.801 22.800 C 19.347 22.800,19.195 23.009,19.351 23.416 C 19.636 24.159,18.809 25.600,18.096 25.600 C 17.750 25.600,17.666 25.924,17.836 26.600 C 18.016 27.319,17.925 27.600,17.513 27.600 C 17.102 27.600,16.989 27.942,17.115 28.800 C 17.220 29.520,17.113 30.000,16.845 30.000 C 16.592 30.000,16.400 30.691,16.400 31.600 C 16.400 32.480,16.220 33.200,16.000 33.200 C 15.388 33.200,15.451 340.284,16.063 340.488 C 16.318 340.573,16.509 341.259,16.487 342.012 C 16.466 342.766,16.640 343.501,16.874 343.646 C 17.108 343.791,17.300 344.379,17.300 344.955 C 17.300 345.530,17.478 346.000,17.697 346.000 C 17.915 346.000,18.007 346.450,17.902 347.000 C 17.770 347.689,17.889 348.000,18.282 348.000 C 18.672 348.000,18.773 348.255,18.600 348.800 C 18.415 349.383,18.528 349.600,19.016 349.600 C 19.447 349.600,19.604 349.814,19.455 350.200 C 19.311 350.577,19.460 350.800,19.856 350.800 C 20.328 350.800,20.424 351.050,20.238 351.791 C 20.032 352.613,20.160 352.825,20.995 353.034 C 21.548 353.173,22.000 353.402,22.000 353.543 C 22.001 353.685,22.451 354.323,23.000 354.962 C 23.550 355.601,24.000 356.276,24.000 356.462 C 24.000 356.648,24.188 356.800,24.418 356.800 C 24.648 356.800,25.286 357.250,25.836 357.800 C 26.386 358.350,26.989 358.800,27.175 358.800 C 27.361 358.800,27.626 359.250,27.764 359.800 C 27.948 360.531,28.283 360.800,29.008 360.800 C 29.553 360.800,30.000 360.980,30.000 361.200 C 30.000 361.420,30.204 361.600,30.453 361.600 C 30.702 361.600,31.197 361.917,31.553 362.304 C 32.386 363.210,34.907 364.087,35.748 363.764 C 36.196 363.593,36.400 363.731,36.400 364.207 C 36.400 364.762,36.637 364.853,37.585 364.663 C 38.358 364.508,38.971 364.628,39.351 365.008 C 40.277 365.934,356.168 365.890,357.094 364.963 C 357.447 364.610,358.131 364.408,358.643 364.506 C 359.177 364.608,359.646 364.458,359.765 364.147 C 359.879 363.849,360.250 363.721,360.604 363.857 C 360.976 363.999,361.455 363.804,361.761 363.385 C 362.076 362.955,362.544 362.770,362.937 362.921 C 363.321 363.068,363.551 362.985,363.495 362.719 C 363.443 362.470,363.985 362.090,364.700 361.875 C 365.415 361.660,366.000 361.330,366.000 361.142 C 366.000 360.954,366.438 360.800,366.973 360.800 C 367.556 360.800,368.037 360.514,368.173 360.086 C 368.447 359.221,374.207 353.600,374.819 353.600 C 375.072 353.600,375.148 353.265,375.000 352.800 C 374.854 352.341,374.928 352.000,375.173 352.000 C 375.408 352.000,375.600 351.730,375.600 351.400 C 375.600 351.070,375.853 350.800,376.163 350.800 C 376.528 350.800,376.652 350.520,376.516 350.000 C 376.352 349.371,376.510 349.193,377.253 349.168 C 377.774 349.151,377.975 349.046,377.700 348.935 C 377.106 348.696,377.024 347.600,377.600 347.600 C 377.820 347.600,378.000 347.234,378.000 346.787 C 378.000 346.341,378.238 345.884,378.528 345.772 C 378.862 345.644,378.993 345.132,378.883 344.385 C 378.763 343.566,378.878 343.200,379.255 343.200 C 379.714 343.200,379.800 318.659,379.800 187.200 C 379.800 55.971,379.714 31.200,379.256 31.200 C 378.870 31.200,378.760 30.794,378.876 29.800 C 378.990 28.825,378.879 28.400,378.512 28.400 C 378.149 28.400,378.063 28.088,378.236 27.400 C 378.426 26.644,378.330 26.400,377.843 26.400 C 377.490 26.400,377.194 26.085,377.187 25.700 C 377.180 25.315,376.910 24.651,376.587 24.224 C 376.264 23.796,376.000 23.121,376.000 22.724 C 376.000 22.324,375.711 22.000,375.353 22.000 C 374.890 22.000,374.770 21.758,374.930 21.145 C 375.137 20.354,373.961 18.852,373.105 18.813 C 372.643 18.792,368.800 14.858,368.800 14.405 C 368.800 14.182,368.440 14.000,368.000 14.000 C 367.560 14.000,366.840 13.640,366.400 13.200 C 365.960 12.760,365.330 12.400,365.000 12.400 C 364.670 12.400,364.400 12.220,364.400 12.000 C 364.400 11.780,364.130 11.600,363.800 11.600 C 363.470 11.600,363.200 11.420,363.200 11.200 C 363.200 10.980,362.750 10.800,362.200 10.800 C 361.650 10.800,361.200 10.608,361.200 10.373 C 361.200 10.128,360.859 10.054,360.398 10.201 C 359.858 10.372,359.515 10.243,359.347 9.807 C 359.166 9.335,358.799 9.224,357.999 9.400 C 357.272 9.560,356.688 9.431,356.278 9.021 C 355.446 8.188,40.181 8.056,39.904 8.888 M350.400 30.031 C 350.400 30.283,351.008 30.409,351.868 30.335 C 352.782 30.256,353.399 30.396,353.502 30.707 C 353.594 30.981,353.826 31.108,354.018 30.989 C 354.577 30.643,356.000 31.726,356.000 32.496 C 356.000 32.883,356.251 33.200,356.557 33.200 C 357.163 33.200,357.600 34.038,357.600 35.199 C 357.600 35.603,357.781 35.994,358.003 36.068 C 358.646 36.282,358.748 338.000,358.105 338.000 C 357.832 338.000,357.652 338.315,357.705 338.700 C 357.757 339.085,357.659 339.439,357.487 339.487 C 357.314 339.535,356.291 340.480,355.213 341.587 C 354.108 342.721,352.891 343.600,352.426 343.600 C 351.972 343.600,351.600 343.780,351.600 344.000 C 351.600 344.266,300.067 344.400,197.800 344.400 C 95.533 344.400,44.000 344.266,44.000 344.000 C 44.000 343.780,43.550 343.600,43.000 343.600 C 42.450 343.600,42.000 343.420,42.000 343.200 C 42.000 342.980,41.672 342.800,41.272 342.800 C 40.405 342.800,38.878 341.165,39.106 340.481 C 39.195 340.216,38.961 340.000,38.587 340.000 C 38.108 340.000,37.967 339.768,38.112 339.214 C 38.225 338.781,38.160 338.466,37.967 338.514 C 37.576 338.610,37.461 36.352,37.851 34.900 C 37.984 34.405,38.323 34.000,38.603 34.000 C 38.884 34.000,39.226 33.550,39.364 33.000 C 39.502 32.450,39.863 32.000,40.165 32.000 C 40.467 32.000,40.825 31.711,40.961 31.358 C 41.096 31.006,41.460 30.814,41.770 30.933 C 42.080 31.052,42.429 30.901,42.546 30.596 C 42.696 30.205,43.172 30.111,44.179 30.274 C 45.105 30.424,45.600 30.347,45.600 30.052 C 45.600 29.717,84.911 29.600,198.000 29.600 C 306.564 29.600,350.400 29.724,350.400 30.031 M220.057 398.449 C 219.962 416.420,220.048 424.818,220.326 424.646 C 220.941 424.266,221.323 428.920,221.127 434.406 C 220.990 438.263,221.065 439.216,221.523 439.392 C 221.897 439.535,222.030 440.015,221.914 440.805 C 221.791 441.644,221.905 442.000,222.296 442.000 C 222.672 442.000,222.771 442.261,222.600 442.800 C 222.417 443.377,222.528 443.600,223.000 443.600 C 223.472 443.600,223.583 443.823,223.400 444.400 C 223.215 444.983,223.328 445.200,223.816 445.200 C 224.348 445.200,224.430 445.428,224.211 446.299 C 224.059 446.904,224.053 447.280,224.198 447.135 C 224.343 446.990,224.962 447.396,225.574 448.036 C 226.186 448.676,227.072 449.200,227.543 449.200 C 228.014 449.200,228.400 449.365,228.400 449.567 C 228.400 450.276,232.607 450.824,237.677 450.774 C 240.495 450.747,242.800 450.561,242.800 450.362 C 242.800 450.163,243.160 450.000,243.600 450.000 C 244.040 450.000,244.400 449.820,244.400 449.600 C 244.400 449.380,244.588 449.200,244.817 449.200 C 245.046 449.200,245.621 448.839,246.095 448.398 C 246.575 447.950,247.256 447.691,247.636 447.811 C 248.087 447.954,248.634 447.603,249.258 446.771 C 251.764 443.428,263.197 431.782,264.323 431.424 C 264.783 431.278,265.280 430.779,265.427 430.313 C 265.744 429.316,267.113 427.873,268.101 427.493 C 268.485 427.346,268.800 427.027,268.800 426.784 C 268.800 426.228,269.809 425.200,270.353 425.200 C 270.931 425.200,272.800 423.266,272.800 422.668 C 272.800 422.395,273.340 421.854,274.000 421.464 C 274.660 421.074,275.200 420.577,275.200 420.359 C 275.200 419.761,276.954 418.132,277.933 417.821 C 278.409 417.670,278.905 417.122,279.035 416.602 C 279.253 415.734,280.001 415.134,281.000 415.026 C 281.220 415.002,281.354 414.701,281.298 414.357 C 281.192 413.710,283.658 411.200,284.399 411.200 C 284.631 411.200,284.992 410.747,285.203 410.193 C 285.413 409.639,286.039 409.013,286.593 408.803 C 287.147 408.592,287.600 408.222,287.600 407.981 C 287.600 407.424,288.396 406.633,289.300 406.290 C 289.685 406.144,290.000 405.749,290.000 405.413 C 290.000 405.076,290.276 404.800,290.613 404.800 C 290.949 404.800,291.344 404.485,291.490 404.100 C 291.833 403.194,292.624 402.400,293.184 402.400 C 293.427 402.400,293.744 402.085,293.890 401.700 C 294.227 400.811,294.811 400.227,295.700 399.890 C 296.085 399.744,296.400 399.349,296.400 399.013 C 296.400 398.676,296.676 398.400,297.013 398.400 C 297.349 398.400,297.744 398.085,297.890 397.700 C 298.233 396.794,299.024 396.000,299.584 396.000 C 299.827 396.000,300.144 395.685,300.290 395.300 C 300.627 394.411,301.211 393.827,302.100 393.490 C 302.485 393.344,302.800 392.949,302.800 392.613 C 302.800 392.276,303.076 392.000,303.413 392.000 C 303.749 392.000,304.144 391.685,304.290 391.300 C 304.633 390.394,305.424 389.600,305.984 389.600 C 306.227 389.600,306.546 389.285,306.693 388.901 C 306.972 388.174,308.598 386.400,308.985 386.400 C 309.417 386.400,311.600 384.261,311.604 383.834 C 311.611 383.183,314.304 380.693,314.722 380.952 C 315.115 381.194,317.600 378.320,317.600 377.623 C 317.600 377.391,317.876 377.200,318.213 377.200 C 318.549 377.200,318.944 376.885,319.090 376.500 C 319.416 375.640,320.216 374.800,320.710 374.800 C 321.364 374.800,322.800 373.325,322.800 372.653 C 322.800 372.052,318.686 372.000,271.499 372.000 L 220.198 372.000 220.057 398.449 " stroke="none" fill="#3f54b2" fill-rule="evenodd"></path><path id="path3" d="M64.928 55.237 C 63.584 55.855,63.054 56.432,62.230 58.173 L 61.205 60.341 61.204 158.670 C 61.203 212.752,61.337 257.450,61.501 258.000 C 62.137 260.128,63.734 262.400,64.594 262.400 C 65.059 262.400,65.639 262.599,65.883 262.843 C 66.177 263.137,68.727 263.272,73.463 263.245 C 80.238 263.207,85.003 262.935,96.400 261.935 C 99.150 261.694,102.255 261.566,103.299 261.651 C 104.344 261.736,105.246 261.663,105.304 261.488 C 105.362 261.313,106.938 260.998,108.805 260.786 C 112.783 260.336,117.158 259.758,120.800 259.202 C 122.230 258.983,124.570 258.635,126.000 258.429 C 127.430 258.222,129.680 257.843,131.000 257.587 C 132.320 257.330,133.940 257.040,134.600 256.941 C 140.260 256.095,142.585 254.824,144.153 251.720 C 145.266 249.517,145.114 61.330,143.997 58.869 C 143.119 56.934,142.023 55.836,140.113 54.978 C 137.832 53.954,67.188 54.197,64.928 55.237 M134.299 270.635 C 134.169 270.764,132.834 271.048,131.332 271.267 C 128.488 271.680,126.388 272.019,122.000 272.772 C 120.570 273.018,117.870 273.405,116.000 273.633 C 114.130 273.860,111.160 274.224,109.400 274.442 C 100.487 275.543,91.119 276.329,81.600 276.772 C 65.232 277.534,63.607 277.936,62.064 281.610 C 61.699 282.480,61.154 283.194,60.853 283.196 C 60.466 283.199,60.393 283.462,60.603 284.100 C 60.766 284.595,60.965 291.750,61.046 300.000 C 61.223 318.128,61.204 317.889,62.647 320.103 C 64.790 323.393,62.267 323.200,103.204 323.199 L 139.400 323.197 140.800 322.344 C 144.892 319.851,144.801 320.425,144.791 296.913 C 144.781 274.206,144.805 274.407,141.944 272.334 C 139.753 270.746,135.199 269.734,134.299 270.635 " stroke="none" fill="#e1342c" fill-rule="evenodd"></path><path id="path4" d="M37.600 8.776 C 37.600 9.368,38.185 9.581,39.131 9.334 C 40.404 9.001,40.191 8.400,38.800 8.400 C 38.140 8.400,37.600 8.569,37.600 8.776 M356.000 8.773 C 356.000 9.259,357.476 9.724,357.996 9.402 C 358.788 8.913,358.381 8.400,357.200 8.400 C 356.540 8.400,356.000 8.568,356.000 8.773 M34.400 9.600 C 34.400 9.820,34.040 10.000,33.600 10.000 C 33.160 10.000,32.800 10.169,32.800 10.376 C 32.800 11.016,33.532 11.246,34.284 10.843 C 34.678 10.631,35.315 10.361,35.700 10.242 C 36.749 9.917,36.543 9.200,35.400 9.200 C 34.850 9.200,34.400 9.380,34.400 9.600 M359.300 9.700 C 359.392 9.975,359.707 10.200,360.000 10.200 C 360.293 10.200,360.608 9.975,360.700 9.700 C 360.799 9.403,360.516 9.200,360.000 9.200 C 359.484 9.200,359.201 9.403,359.300 9.700 M361.200 10.400 C 361.200 10.620,361.470 10.800,361.800 10.800 C 362.130 10.800,362.400 10.620,362.400 10.400 C 362.400 10.180,362.130 10.000,361.800 10.000 C 361.470 10.000,361.200 10.180,361.200 10.400 M29.600 11.600 C 29.600 12.040,29.420 12.400,29.200 12.400 C 28.980 12.400,28.800 12.580,28.800 12.800 C 28.800 13.020,29.070 13.200,29.400 13.200 C 29.730 13.200,30.000 13.046,30.000 12.858 C 30.000 12.670,30.571 12.352,31.269 12.152 C 33.205 11.596,33.184 10.800,31.233 10.800 C 29.867 10.800,29.600 10.931,29.600 11.600 M364.400 12.000 C 364.400 12.220,364.670 12.400,365.000 12.400 C 365.330 12.400,365.600 12.220,365.600 12.000 C 365.600 11.780,365.330 11.600,365.000 11.600 C 364.670 11.600,364.400 11.780,364.400 12.000 M366.000 12.786 C 366.000 13.255,367.583 14.151,367.882 13.851 C 368.160 13.574,366.985 12.400,366.429 12.400 C 366.193 12.400,366.000 12.574,366.000 12.786 M26.060 14.642 C 25.762 14.978,25.636 15.369,25.779 15.512 C 26.099 15.833,27.296 15.113,27.510 14.471 C 27.735 13.796,26.700 13.918,26.060 14.642 M369.200 15.048 C 369.200 15.435,372.813 18.800,373.229 18.800 C 373.936 18.800,373.591 18.255,371.793 16.531 C 370.141 14.948,369.200 14.410,369.200 15.048 M21.700 18.777 C 20.750 19.570,20.509 20.400,21.229 20.400 C 21.884 20.400,22.667 19.472,22.667 18.695 C 22.667 18.313,22.652 18.006,22.633 18.013 C 22.615 18.021,22.195 18.364,21.700 18.777 M374.800 21.400 C 374.800 21.730,375.070 22.000,375.400 22.000 C 375.730 22.000,376.000 22.326,376.000 22.724 C 376.000 23.121,376.264 23.796,376.587 24.224 C 376.910 24.651,377.180 25.315,377.187 25.700 C 377.205 26.681,378.400 26.583,378.400 25.600 C 378.400 25.160,378.220 24.800,378.000 24.800 C 377.780 24.800,377.600 24.080,377.600 23.200 C 377.600 21.867,377.467 21.600,376.800 21.600 C 376.360 21.600,376.000 21.420,376.000 21.200 C 376.000 20.980,375.730 20.800,375.400 20.800 C 375.070 20.800,374.800 21.070,374.800 21.400 M19.200 22.200 C 19.200 22.530,19.470 22.800,19.800 22.800 C 20.130 22.800,20.400 22.530,20.400 22.200 C 20.400 21.870,20.130 21.600,19.800 21.600 C 19.470 21.600,19.200 21.870,19.200 22.200 M18.271 23.922 C 17.902 24.330,17.600 24.874,17.600 25.131 C 17.600 25.901,18.569 25.662,19.137 24.753 C 19.849 23.612,19.154 22.946,18.271 23.922 M17.055 27.000 C 16.915 27.365,17.055 27.600,17.413 27.600 C 17.736 27.600,18.000 27.330,18.000 27.000 C 18.000 26.670,17.839 26.400,17.643 26.400 C 17.446 26.400,17.182 26.670,17.055 27.000 M378.267 27.467 C 377.806 27.927,377.975 28.400,378.600 28.400 C 378.930 28.400,379.200 28.130,379.200 27.800 C 379.200 27.175,378.727 27.006,378.267 27.467 M16.400 29.000 C 16.400 29.550,16.580 30.000,16.800 30.000 C 17.020 30.000,17.200 29.550,17.200 29.000 C 17.200 28.450,17.020 28.000,16.800 28.000 C 16.580 28.000,16.400 28.450,16.400 29.000 M378.800 30.000 C 378.800 30.800,379.000 31.200,379.400 31.200 C 379.800 31.200,380.000 30.800,380.000 30.000 C 380.000 29.200,379.800 28.800,379.400 28.800 C 379.000 28.800,378.800 29.200,378.800 30.000 M45.600 30.000 C 45.600 30.266,96.667 30.400,198.000 30.400 C 299.333 30.400,350.400 30.266,350.400 30.000 C 350.400 29.734,299.333 29.600,198.000 29.600 C 96.667 29.600,45.600 29.734,45.600 30.000 M42.675 30.258 C 42.153 30.780,42.402 31.200,43.233 31.200 C 43.699 31.200,43.997 30.990,43.908 30.725 C 43.713 30.140,43.046 29.888,42.675 30.258 M352.500 30.287 C 351.711 30.570,351.918 31.200,352.800 31.200 C 353.240 31.200,353.600 31.031,353.600 30.824 C 353.600 30.312,353.105 30.070,352.500 30.287 M15.600 31.800 C 15.600 32.570,15.780 33.200,16.000 33.200 C 16.220 33.200,16.400 32.570,16.400 31.800 C 16.400 31.030,16.220 30.400,16.000 30.400 C 15.780 30.400,15.600 31.030,15.600 31.800 M40.957 31.367 C 40.824 31.715,40.483 32.000,40.200 32.000 C 39.658 32.000,39.035 33.168,39.388 33.521 C 39.502 33.635,39.932 33.339,40.344 32.864 C 40.757 32.389,41.403 32.000,41.780 32.000 C 42.158 32.000,42.395 31.786,42.308 31.525 C 42.057 30.771,41.224 30.673,40.957 31.367 M353.798 31.203 C 353.480 31.717,354.547 32.800,355.371 32.800 C 356.209 32.800,356.170 32.017,355.300 31.357 C 354.448 30.710,354.123 30.677,353.798 31.203 M379.600 187.000 C 379.600 323.800,379.668 341.200,380.200 341.200 C 380.732 341.200,380.800 323.800,380.800 187.000 C 380.800 50.200,380.732 32.800,380.200 32.800 C 379.668 32.800,379.600 50.200,379.600 187.000 M356.000 33.629 C 356.000 34.189,357.175 35.359,357.456 35.078 C 357.852 34.681,357.156 33.200,356.573 33.200 C 356.258 33.200,356.000 33.393,356.000 33.629 M37.711 35.059 C 37.216 36.126,37.337 36.800,38.024 36.800 C 38.231 36.800,38.400 36.440,38.400 36.000 C 38.400 35.560,38.580 35.200,38.800 35.200 C 39.020 35.200,39.200 34.930,39.200 34.600 C 39.200 33.625,38.240 33.921,37.711 35.059 M357.600 37.167 C 357.600 38.020,357.793 38.400,358.227 38.400 C 358.671 38.400,358.816 38.089,358.727 37.331 C 358.542 35.774,357.600 35.636,357.600 37.167 M70.000 52.800 C 70.000 53.027,68.829 53.200,67.288 53.200 C 65.035 53.200,64.479 53.335,64.000 54.000 C 63.683 54.440,63.103 54.800,62.712 54.800 C 62.296 54.800,62.000 55.096,62.000 55.512 C 62.000 55.903,61.640 56.483,61.200 56.800 C 60.730 57.139,60.400 57.835,60.400 58.488 C 60.400 59.100,60.220 59.600,60.000 59.600 C 59.734 59.600,59.600 92.933,59.600 158.800 C 59.600 224.667,59.734 258.000,60.000 258.000 C 60.220 258.000,60.400 258.500,60.400 259.112 C 60.400 259.765,60.730 260.461,61.200 260.800 C 61.640 261.117,62.000 261.697,62.000 262.088 C 62.000 262.504,62.296 262.800,62.712 262.800 C 63.103 262.800,63.683 263.160,64.000 263.600 C 64.438 264.208,65.035 264.400,66.488 264.400 C 67.540 264.400,68.400 264.580,68.400 264.800 C 68.400 265.020,69.120 265.200,70.000 265.200 C 70.880 265.200,71.600 265.020,71.600 264.800 C 71.600 264.547,74.467 264.400,79.400 264.400 C 84.333 264.400,87.200 264.253,87.200 264.000 C 87.200 263.756,89.067 263.600,92.000 263.600 C 94.933 263.600,96.800 263.444,96.800 263.200 C 96.800 262.960,98.400 262.800,100.800 262.800 C 104.089 262.800,104.800 262.693,104.800 262.200 C 104.800 261.468,101.822 261.398,95.800 261.987 C 82.619 263.277,66.796 263.756,65.933 262.893 C 65.662 262.622,65.059 262.400,64.594 262.400 C 63.734 262.400,62.137 260.128,61.501 258.000 C 61.337 257.450,61.203 212.752,61.204 158.670 L 61.205 60.341 62.228 58.178 C 64.143 54.129,61.226 54.400,102.864 54.400 C 141.356 54.400,139.998 54.333,142.305 56.347 C 142.803 56.781,143.565 57.916,143.997 58.869 C 145.114 61.330,145.266 249.517,144.153 251.720 C 142.327 255.334,140.498 256.073,128.600 258.001 C 127.060 258.250,124.900 258.616,123.800 258.814 C 122.700 259.012,120.270 259.367,118.400 259.603 C 116.530 259.840,113.650 260.205,112.000 260.414 C 110.350 260.624,108.145 260.897,107.100 261.022 C 103.585 261.442,105.126 262.000,109.800 262.000 C 112.600 262.000,114.400 261.843,114.400 261.600 C 114.400 261.380,115.390 261.200,116.600 261.200 C 117.810 261.200,118.800 261.020,118.800 260.800 C 118.800 260.571,120.000 260.400,121.600 260.400 C 123.200 260.400,124.400 260.229,124.400 260.000 C 124.400 259.780,125.300 259.600,126.400 259.600 C 127.500 259.600,128.400 259.420,128.400 259.200 C 128.400 258.971,129.600 258.800,131.200 258.800 C 132.800 258.800,134.000 258.629,134.000 258.400 C 134.000 258.178,135.067 258.000,136.400 258.000 C 137.733 258.000,138.800 257.822,138.800 257.600 C 138.800 257.380,139.300 257.200,139.912 257.200 C 140.565 257.200,141.261 256.870,141.600 256.400 C 141.939 255.930,142.635 255.600,143.288 255.600 C 144.133 255.600,144.400 255.408,144.400 254.800 C 144.400 254.360,144.580 254.000,144.800 254.000 C 145.020 254.000,145.200 253.460,145.200 252.800 C 145.200 252.140,145.380 251.600,145.600 251.600 C 145.820 251.600,146.000 250.880,146.000 250.000 C 146.000 249.120,146.180 248.400,146.400 248.400 C 146.620 248.400,146.800 248.130,146.800 247.800 C 146.800 247.470,146.620 247.200,146.400 247.200 C 146.134 247.200,146.000 216.067,146.000 154.600 C 146.000 93.133,146.134 62.000,146.400 62.000 C 146.620 62.000,146.800 61.640,146.800 61.200 C 146.800 60.760,146.620 60.400,146.400 60.400 C 146.180 60.400,146.000 60.040,146.000 59.600 C 146.000 59.160,145.831 58.800,145.624 58.800 C 145.417 58.800,145.192 58.125,145.124 57.300 C 145.016 55.998,144.855 55.783,143.900 55.673 C 143.123 55.584,142.800 55.320,142.800 54.773 C 142.800 54.267,142.524 54.000,142.000 54.000 C 141.560 54.000,141.200 53.820,141.200 53.600 C 141.200 53.367,139.867 53.200,138.000 53.200 C 136.133 53.200,134.800 53.033,134.800 52.800 C 134.800 52.537,123.733 52.400,102.400 52.400 C 81.067 52.400,70.000 52.537,70.000 52.800 M160.800 52.800 C 160.800 53.020,160.344 53.200,159.787 53.200 C 158.660 53.200,156.000 55.579,156.000 56.587 C 156.000 56.924,155.820 57.200,155.600 57.200 C 155.380 57.200,155.200 57.560,155.200 58.000 C 155.200 58.440,155.020 58.800,154.800 58.800 C 154.580 58.800,154.400 59.160,154.400 59.600 C 154.400 60.040,154.220 60.400,154.000 60.400 C 153.780 60.400,153.600 61.300,153.600 62.400 C 153.600 63.500,153.780 64.400,154.000 64.400 C 154.265 64.400,154.400 95.000,154.400 155.400 C 154.400 215.800,154.535 246.400,154.800 246.400 C 155.020 246.400,155.200 246.641,155.200 246.936 C 155.200 247.599,157.787 250.000,158.501 250.000 C 158.788 250.000,159.283 250.360,159.600 250.800 C 160.239 251.686,168.000 252.056,168.000 251.200 C 168.000 250.980,168.900 250.800,170.000 250.800 C 171.100 250.800,172.000 250.620,172.000 250.400 C 172.000 250.180,172.360 250.000,172.800 250.000 C 173.240 250.000,173.600 249.834,173.600 249.632 C 173.600 249.429,174.773 249.138,176.206 248.985 C 177.639 248.831,178.909 248.547,179.029 248.353 C 179.149 248.159,179.856 248.000,180.600 248.000 C 181.344 248.000,182.064 247.820,182.200 247.600 C 182.336 247.380,182.887 247.200,183.424 247.200 C 183.961 247.200,184.400 247.020,184.400 246.800 C 184.400 246.580,184.760 246.400,185.200 246.400 C 185.640 246.400,186.000 246.220,186.000 246.000 C 186.000 245.780,186.540 245.600,187.200 245.600 C 187.860 245.600,188.400 245.420,188.400 245.200 C 188.400 244.980,189.120 244.800,190.000 244.800 C 190.880 244.800,191.600 244.620,191.600 244.400 C 191.600 244.180,192.100 244.000,192.712 244.000 C 193.365 244.000,194.061 243.670,194.400 243.200 C 194.802 242.643,195.435 242.400,196.488 242.400 C 197.320 242.400,198.000 242.220,198.000 242.000 C 198.000 241.780,198.540 241.600,199.200 241.600 C 199.860 241.600,200.400 241.420,200.400 241.200 C 200.400 240.980,200.940 240.800,201.600 240.800 C 202.260 240.800,202.800 240.620,202.800 240.400 C 202.800 240.180,203.340 240.000,204.000 240.000 C 204.660 240.000,205.200 239.820,205.200 239.600 C 205.200 239.380,205.560 239.200,206.000 239.200 C 206.440 239.200,206.800 239.020,206.800 238.800 C 206.800 238.580,207.160 238.400,207.600 238.400 C 208.040 238.400,208.400 238.220,208.400 238.000 C 208.400 237.780,208.940 237.600,209.600 237.600 C 210.260 237.600,210.800 237.420,210.800 237.200 C 210.800 236.980,211.340 236.800,212.000 236.800 C 212.660 236.800,213.200 236.620,213.200 236.400 C 213.200 236.180,213.560 236.000,214.000 236.000 C 214.440 236.000,214.801 235.865,214.803 235.700 C 214.807 235.294,216.786 234.400,217.680 234.400 C 218.076 234.400,218.400 234.220,218.400 234.000 C 218.400 233.780,218.940 233.600,219.600 233.600 C 220.260 233.600,220.800 233.420,220.800 233.200 C 220.800 232.980,221.120 232.800,221.512 232.800 C 221.903 232.800,222.483 232.440,222.800 232.000 C 223.117 231.560,223.697 231.200,224.088 231.200 C 224.480 231.200,224.800 231.020,224.800 230.800 C 224.800 230.580,225.340 230.400,226.000 230.400 C 226.660 230.400,227.200 230.220,227.200 230.000 C 227.200 229.780,227.560 229.600,228.000 229.600 C 228.440 229.600,228.800 229.420,228.800 229.200 C 228.800 228.980,229.340 228.800,230.000 228.800 C 230.660 228.800,231.200 228.620,231.200 228.400 C 231.200 228.180,231.560 228.000,232.000 228.000 C 232.440 228.000,232.800 227.820,232.800 227.600 C 232.800 227.380,233.300 227.200,233.912 227.200 C 234.565 227.200,235.261 226.870,235.600 226.400 C 235.917 225.960,236.415 225.600,236.706 225.600 C 237.393 225.600,239.200 223.793,239.200 223.106 C 239.200 222.815,239.560 222.317,240.000 222.000 C 240.440 221.683,240.800 221.103,240.800 220.712 C 240.800 220.320,240.980 220.000,241.200 220.000 C 241.465 220.000,241.600 193.000,241.600 139.800 C 241.600 86.600,241.465 59.600,241.200 59.600 C 240.980 59.600,240.800 59.240,240.800 58.800 C 240.800 58.360,240.620 58.000,240.400 58.000 C 240.180 58.000,240.000 57.725,240.000 57.389 C 240.000 56.358,236.540 53.200,235.411 53.200 C 234.855 53.200,234.400 53.020,234.400 52.800 C 234.400 52.536,221.867 52.400,197.600 52.400 C 173.333 52.400,160.800 52.536,160.800 52.800 M252.607 55.009 C 249.531 58.325,249.845 49.569,249.821 132.800 C 249.798 211.599,249.714 208.400,251.819 208.400 C 252.138 208.400,252.400 208.760,252.400 209.200 C 252.400 209.700,252.667 210.000,253.112 210.000 C 253.503 210.000,254.083 210.360,254.400 210.800 C 254.717 211.240,255.297 211.600,255.688 211.600 C 256.080 211.600,256.400 211.780,256.400 212.000 C 256.400 212.220,256.760 212.400,257.200 212.400 C 257.640 212.400,258.000 212.220,258.000 212.000 C 258.000 211.780,258.720 211.600,259.600 211.600 C 260.756 211.600,261.200 211.433,261.200 211.000 C 261.200 210.544,260.703 210.400,259.128 210.400 C 255.223 210.400,253.571 209.423,251.969 206.169 L 251.000 204.200 251.000 131.715 L 251.000 59.230 252.963 57.238 C 255.971 54.184,253.195 54.372,293.403 54.492 C 334.446 54.614,330.947 54.328,333.420 57.761 L 334.600 59.400 334.800 99.795 C 334.988 137.856,335.040 140.197,335.700 140.324 C 336.612 140.499,336.811 63.058,335.900 62.633 C 335.500 62.447,335.500 62.353,335.900 62.167 C 336.492 61.891,336.581 59.600,336.000 59.600 C 335.780 59.600,335.600 59.240,335.600 58.800 C 335.600 58.360,335.420 58.000,335.200 58.000 C 334.980 58.000,334.800 57.717,334.800 57.371 C 334.800 56.563,333.837 55.600,333.029 55.600 C 332.683 55.600,332.400 55.317,332.400 54.971 C 332.400 53.604,331.357 53.200,327.829 53.200 C 325.810 53.200,324.400 53.036,324.400 52.800 C 324.400 52.536,312.577 52.405,289.700 52.415 L 255.000 52.431 252.607 55.009 M233.932 54.646 C 234.610 54.782,235.897 55.520,236.793 56.287 C 239.878 58.928,239.612 51.061,239.603 139.474 L 239.595 218.966 238.765 220.583 C 237.613 222.829,236.978 223.277,230.400 226.467 C 214.514 234.172,189.319 243.587,172.800 247.989 C 170.930 248.488,168.245 249.226,166.833 249.629 C 162.020 251.004,157.185 248.586,156.381 244.400 C 155.881 241.798,155.902 61.768,156.403 59.966 C 156.956 57.976,159.092 55.667,161.000 54.997 C 162.670 54.411,231.108 54.082,233.932 54.646 M334.800 145.200 C 334.800 148.133,334.867 148.400,335.600 148.400 C 336.333 148.400,336.400 148.133,336.400 145.200 C 336.400 142.267,336.333 142.000,335.600 142.000 C 334.867 142.000,334.800 142.267,334.800 145.200 M334.414 151.546 C 333.762 153.968,332.129 155.798,322.891 164.460 C 320.861 166.364,319.200 168.105,319.200 168.331 C 319.200 168.557,318.948 168.800,318.641 168.871 C 318.333 168.942,316.938 170.012,315.541 171.250 C 314.143 172.487,312.243 174.107,311.318 174.850 C 306.255 178.913,303.756 180.965,303.391 181.359 C 303.166 181.602,302.693 181.980,302.341 182.200 C 301.543 182.698,293.474 188.863,293.200 189.184 C 293.090 189.313,291.791 190.224,290.313 191.209 C 287.488 193.092,286.931 194.000,288.600 194.000 C 289.150 194.000,289.600 193.820,289.600 193.600 C 289.600 193.380,289.884 193.200,290.231 193.200 C 290.579 193.200,291.554 192.480,292.400 191.600 C 293.246 190.720,294.149 190.000,294.408 190.000 C 294.667 190.000,295.383 189.460,296.000 188.800 C 296.617 188.140,297.333 187.600,297.592 187.600 C 297.851 187.600,298.754 186.880,299.600 186.000 C 300.446 185.120,301.344 184.400,301.597 184.400 C 302.125 184.400,303.198 183.417,303.203 182.929 C 303.206 182.588,305.082 181.600,305.725 181.600 C 305.927 181.600,306.722 180.880,307.494 180.000 C 308.265 179.120,309.235 178.400,309.648 178.400 C 310.133 178.400,310.400 178.116,310.400 177.600 C 310.400 177.103,310.667 176.800,311.104 176.800 C 311.491 176.800,312.032 176.440,312.307 176.000 C 312.582 175.560,313.099 175.200,313.457 175.200 C 314.184 175.200,315.999 173.273,316.000 172.500 C 316.000 172.225,316.450 172.000,317.000 172.000 C 317.642 172.000,318.000 171.775,318.000 171.371 C 318.000 170.644,318.937 169.600,319.590 169.600 C 320.169 169.600,322.000 167.769,322.000 167.190 C 322.000 166.537,323.044 165.600,323.771 165.600 C 324.133 165.600,324.400 165.261,324.400 164.800 C 324.400 164.300,324.667 164.000,325.112 164.000 C 325.503 164.000,326.083 163.640,326.400 163.200 C 326.717 162.760,327.220 162.400,327.517 162.400 C 328.330 162.400,329.200 161.366,329.200 160.400 C 329.200 159.393,330.080 158.400,330.971 158.400 C 331.317 158.400,331.600 158.220,331.600 158.000 C 331.600 157.780,331.878 157.600,332.218 157.600 C 333.018 157.600,334.800 155.818,334.800 155.018 C 334.800 154.678,334.980 154.400,335.200 154.400 C 335.420 154.400,335.600 153.410,335.600 152.200 C 335.600 149.644,335.014 149.321,334.414 151.546 M328.900 170.216 C 328.185 170.965,327.600 171.852,327.600 172.189 C 327.600 172.533,327.251 172.800,326.800 172.800 C 326.267 172.800,326.000 173.067,326.000 173.600 C 326.000 174.057,325.733 174.400,325.378 174.400 C 325.036 174.400,323.696 175.480,322.400 176.800 C 321.104 178.120,319.837 179.200,319.583 179.200 C 319.113 179.200,317.476 180.829,316.412 182.356 C 316.088 182.820,315.531 183.200,315.173 183.200 C 314.378 183.200,312.800 184.514,312.800 185.175 C 312.800 185.858,311.773 186.800,311.029 186.800 C 310.683 186.800,310.400 186.980,310.400 187.200 C 310.400 187.420,310.121 187.600,309.781 187.600 C 309.440 187.600,307.919 188.860,306.400 190.400 C 304.881 191.940,303.437 193.200,303.191 193.200 C 302.537 193.200,301.600 194.243,301.600 194.971 C 301.600 196.390,304.094 194.826,308.999 190.333 C 309.879 189.526,311.140 188.454,311.800 187.951 C 314.174 186.141,319.879 180.962,323.952 176.920 C 326.235 174.654,328.195 172.800,328.307 172.800 C 328.577 172.800,332.163 169.519,332.333 169.115 C 332.746 168.140,330.060 169.001,328.900 170.216 M332.800 169.237 C 332.800 169.478,333.143 169.765,333.563 169.874 C 333.983 169.984,334.416 170.417,334.526 170.837 C 334.635 171.257,334.922 171.600,335.163 171.600 C 335.794 171.600,335.701 170.043,335.029 169.371 C 334.357 168.699,332.800 168.606,332.800 169.237 M334.895 188.095 C 334.993 202.295,335.050 203.399,335.700 203.524 C 336.357 203.650,336.400 202.709,336.400 188.229 C 336.400 173.036,336.388 172.800,335.595 172.800 C 334.801 172.800,334.792 173.002,334.895 188.095 M278.479 199.402 C 274.013 202.371,270.265 204.800,270.151 204.800 C 269.928 204.800,266.332 207.200,265.997 207.574 C 265.885 207.698,264.905 208.264,263.820 208.831 C 261.343 210.125,261.051 210.800,262.967 210.800 C 263.755 210.800,264.400 210.620,264.400 210.400 C 264.400 210.180,264.868 210.000,265.440 210.000 C 266.079 210.000,266.911 209.538,267.600 208.800 C 268.217 208.140,268.969 207.600,269.272 207.600 C 269.575 207.600,270.083 207.240,270.400 206.800 C 270.717 206.360,271.225 206.000,271.528 206.000 C 271.831 206.000,272.583 205.460,273.200 204.800 C 273.817 204.140,274.713 203.600,275.192 203.600 C 275.685 203.600,276.730 202.906,277.600 202.000 C 278.446 201.120,279.382 200.400,279.680 200.400 C 279.979 200.400,280.483 200.040,280.800 199.600 C 281.117 199.160,281.747 198.800,282.200 198.800 C 282.653 198.800,283.283 198.440,283.600 198.000 C 283.917 197.560,284.415 197.200,284.706 197.200 C 285.437 197.200,287.200 195.374,287.200 194.618 C 287.200 193.629,287.001 193.739,278.479 199.402 M298.000 197.200 C 297.230 198.060,296.357 198.771,296.060 198.782 C 295.764 198.792,295.017 199.340,294.400 200.000 C 293.783 200.660,293.031 201.200,292.728 201.200 C 292.425 201.200,291.917 201.560,291.600 202.000 C 291.283 202.440,290.779 202.800,290.480 202.800 C 290.182 202.800,289.246 203.520,288.400 204.400 C 287.554 205.280,286.618 206.000,286.320 206.000 C 286.021 206.000,285.517 206.360,285.200 206.800 C 284.883 207.240,284.253 207.600,283.800 207.600 C 283.347 207.600,282.717 207.960,282.400 208.400 C 282.083 208.840,281.575 209.200,281.272 209.200 C 280.969 209.200,280.217 209.740,279.600 210.400 C 278.983 211.060,278.191 211.600,277.840 211.600 C 277.488 211.600,277.200 211.780,277.200 212.000 C 277.200 212.220,276.880 212.400,276.488 212.400 C 276.097 212.400,275.517 212.760,275.200 213.200 C 274.883 213.640,274.303 214.000,273.912 214.000 C 273.467 214.000,273.200 214.300,273.200 214.800 C 273.200 215.333,272.933 215.600,272.400 215.600 C 271.960 215.600,271.600 215.780,271.600 216.000 C 271.600 216.220,271.239 216.400,270.797 216.400 C 270.356 216.400,269.603 216.850,269.125 217.400 C 268.582 218.025,267.832 218.400,267.128 218.400 C 266.508 218.400,266.000 218.580,266.000 218.800 C 266.000 219.020,265.640 219.200,265.200 219.200 C 264.667 219.200,264.400 219.467,264.400 220.000 C 264.400 220.500,264.133 220.800,263.688 220.800 C 263.297 220.800,262.717 221.160,262.400 221.600 C 262.061 222.070,261.365 222.400,260.712 222.400 C 260.100 222.400,259.600 222.580,259.600 222.800 C 259.600 223.020,259.240 223.200,258.800 223.200 C 258.360 223.200,258.000 223.380,258.000 223.600 C 258.000 223.820,257.712 224.000,257.360 224.000 C 257.009 224.000,256.217 224.540,255.600 225.200 C 254.983 225.860,254.284 226.400,254.045 226.400 C 253.319 226.400,249.957 230.110,250.173 230.673 C 250.284 230.963,250.195 231.200,249.976 231.200 C 249.138 231.200,249.682 318.390,250.529 319.900 C 250.930 320.615,251.515 321.200,251.829 321.200 C 252.143 321.200,252.400 321.483,252.400 321.829 C 252.400 322.773,253.414 323.600,254.571 323.600 C 255.137 323.600,255.600 323.780,255.600 324.000 C 255.600 324.220,256.320 324.400,257.200 324.400 C 258.080 324.400,258.800 324.580,258.800 324.800 C 258.800 325.020,259.340 325.200,260.000 325.200 C 260.660 325.200,261.200 325.020,261.200 324.800 C 261.200 324.537,271.867 324.400,292.400 324.400 C 312.933 324.400,323.600 324.537,323.600 324.800 C 323.600 325.020,324.320 325.200,325.200 325.200 C 326.080 325.200,326.800 325.020,326.800 324.800 C 326.800 324.580,327.340 324.400,328.000 324.400 C 328.800 324.400,329.200 324.200,329.200 323.800 C 329.200 323.271,324.904 323.200,292.935 323.200 L 256.670 323.200 255.035 322.239 C 252.808 320.930,251.748 319.356,251.210 316.559 C 250.557 313.161,250.805 233.435,251.473 231.944 C 252.336 230.020,254.334 228.149,257.787 226.031 C 259.664 224.880,261.200 223.761,261.200 223.545 C 261.200 223.329,261.363 223.254,261.562 223.377 C 262.176 223.756,280.800 211.937,280.800 211.168 C 280.800 210.966,281.027 210.800,281.304 210.800 C 281.774 210.800,287.158 207.387,287.600 206.809 C 287.710 206.665,288.700 205.946,289.800 205.211 C 292.000 203.741,298.868 198.649,300.297 197.428 C 301.453 196.440,301.454 195.595,300.300 195.618 C 299.775 195.629,298.817 196.287,298.000 197.200 M334.796 262.500 C 334.793 291.815,334.680 316.475,334.543 317.300 C 334.341 318.522,334.416 318.800,334.948 318.800 C 335.406 318.800,335.600 318.443,335.600 317.600 C 335.600 316.940,335.780 316.400,336.000 316.400 C 336.265 316.400,336.400 298.267,336.400 262.800 C 336.400 209.467,336.396 209.200,335.600 209.200 C 334.804 209.200,334.800 209.468,334.796 262.500 M228.400 239.200 C 228.083 239.640,227.503 240.000,227.112 240.000 C 226.720 240.000,226.400 240.180,226.400 240.400 C 226.400 240.620,226.040 240.800,225.600 240.800 C 225.160 240.800,224.800 240.980,224.800 241.200 C 224.800 241.420,224.260 241.600,223.600 241.600 C 222.940 241.600,222.400 241.780,222.400 242.000 C 222.400 242.220,221.860 242.400,221.200 242.400 C 220.540 242.400,220.000 242.580,220.000 242.800 C 220.000 243.020,219.503 243.200,218.896 243.200 C 218.226 243.200,217.596 243.514,217.293 244.000 C 217.018 244.440,216.525 244.800,216.197 244.800 C 215.868 244.800,215.600 244.980,215.600 245.200 C 215.600 245.420,215.060 245.600,214.400 245.600 C 213.740 245.600,213.200 245.780,213.200 246.000 C 213.200 246.220,212.840 246.400,212.400 246.400 C 211.960 246.400,211.600 246.580,211.600 246.800 C 211.600 247.020,211.060 247.200,210.400 247.200 C 209.740 247.200,209.200 247.380,209.200 247.600 C 209.200 247.820,208.660 248.000,208.000 248.000 C 207.340 248.000,206.800 248.180,206.800 248.400 C 206.800 248.620,206.440 248.800,206.000 248.800 C 205.560 248.800,205.200 248.962,205.200 249.161 C 205.200 249.359,204.120 249.647,202.800 249.800 C 201.480 249.953,200.400 250.241,200.400 250.439 C 200.400 250.638,200.040 250.800,199.600 250.800 C 199.160 250.800,198.800 250.980,198.800 251.200 C 198.800 251.420,198.440 251.600,198.000 251.600 C 197.560 251.600,197.200 251.780,197.200 252.000 C 197.200 252.220,196.480 252.400,195.600 252.400 C 194.720 252.400,194.000 252.580,194.000 252.800 C 194.000 253.020,193.640 253.200,193.200 253.200 C 192.760 253.200,192.400 253.380,192.400 253.600 C 192.400 253.820,191.680 254.000,190.800 254.000 C 189.920 254.000,189.200 254.180,189.200 254.400 C 189.200 254.620,188.660 254.800,188.000 254.800 C 187.340 254.800,186.800 254.980,186.800 255.200 C 186.800 255.420,186.476 255.600,186.080 255.600 C 185.186 255.600,183.207 256.494,183.203 256.900 C 183.201 257.065,182.660 257.200,182.000 257.200 C 181.340 257.200,180.800 257.380,180.800 257.600 C 180.800 257.820,180.080 258.000,179.200 258.000 C 178.320 258.000,177.600 258.180,177.600 258.400 C 177.600 258.620,177.060 258.800,176.400 258.800 C 175.740 258.800,175.200 258.980,175.200 259.200 C 175.200 259.420,174.480 259.600,173.600 259.600 C 172.720 259.600,172.000 259.780,172.000 260.000 C 172.000 260.220,171.280 260.400,170.400 260.400 C 169.520 260.400,168.800 260.580,168.800 260.800 C 168.800 261.020,168.440 261.200,168.000 261.200 C 167.560 261.200,167.200 261.380,167.200 261.600 C 167.200 261.820,166.300 262.000,165.200 262.000 C 164.100 262.000,163.200 262.180,163.200 262.400 C 163.200 262.620,162.552 262.800,161.760 262.800 C 160.677 262.800,160.044 263.097,159.200 264.000 C 158.583 264.660,157.873 265.200,157.621 265.200 C 156.948 265.200,155.200 267.064,155.200 267.782 C 155.200 268.122,155.020 268.400,154.800 268.400 C 154.580 268.400,154.400 269.120,154.400 270.000 C 154.400 270.880,154.220 271.600,154.000 271.600 C 153.780 271.600,153.600 271.960,153.600 272.400 C 153.600 272.840,153.780 273.200,154.000 273.200 C 154.220 273.200,154.400 273.740,154.400 274.400 C 154.400 275.060,154.220 275.600,154.000 275.600 C 153.780 275.600,153.600 276.579,153.600 277.776 C 153.600 278.973,153.780 280.064,154.000 280.200 C 154.258 280.359,154.400 287.271,154.400 299.624 C 154.400 312.141,154.539 318.800,154.800 318.800 C 155.020 318.800,155.200 319.160,155.200 319.600 C 155.200 320.040,155.380 320.400,155.600 320.400 C 155.820 320.400,156.000 320.683,156.000 321.029 C 156.000 321.800,156.951 322.800,157.683 322.800 C 157.980 322.800,158.483 323.160,158.800 323.600 C 159.238 324.208,159.835 324.400,161.288 324.400 C 162.340 324.400,163.200 324.580,163.200 324.800 C 163.200 325.064,175.200 325.200,198.400 325.200 C 221.600 325.200,233.600 325.064,233.600 324.800 C 233.600 324.580,234.140 324.400,234.800 324.400 C 235.460 324.400,236.000 324.220,236.000 324.000 C 236.000 323.780,236.458 323.600,237.018 323.600 C 238.141 323.600,240.000 321.990,240.000 321.018 C 240.000 320.678,240.180 320.400,240.400 320.400 C 240.620 320.400,240.800 319.680,240.800 318.800 C 240.800 317.920,240.980 317.200,241.200 317.200 C 241.464 317.200,241.600 304.867,241.600 281.000 C 241.600 257.133,241.464 244.800,241.200 244.800 C 240.980 244.800,240.800 244.480,240.800 244.088 C 240.800 243.697,240.440 243.117,240.000 242.800 C 239.560 242.483,239.200 241.903,239.200 241.512 C 239.200 241.000,238.887 240.800,238.088 240.800 C 237.435 240.800,236.739 240.470,236.400 240.000 C 236.061 239.530,235.365 239.200,234.712 239.200 C 234.100 239.200,233.600 239.020,233.600 238.800 C 233.600 237.981,229.025 238.333,228.400 239.200 M235.411 241.247 C 237.258 242.115,238.450 243.428,239.212 245.432 C 239.923 247.303,239.746 316.877,239.025 318.601 C 238.429 320.029,236.709 321.747,234.978 322.645 C 233.344 323.493,162.738 323.468,160.707 322.619 C 156.029 320.664,155.948 320.150,156.085 293.100 L 156.200 270.200 157.185 268.480 C 158.214 266.683,159.863 265.428,162.086 264.753 C 164.131 264.132,168.718 262.836,171.800 262.010 C 179.698 259.893,194.764 254.930,204.000 251.404 C 206.090 250.607,208.970 249.532,210.400 249.017 C 211.830 248.503,213.990 247.641,215.200 247.102 C 216.410 246.563,218.193 245.780,219.161 245.361 C 220.130 244.943,223.010 243.665,225.561 242.522 C 230.830 240.162,232.612 239.932,235.411 241.247 M133.200 269.600 C 133.200 269.833,131.867 270.000,130.000 270.000 C 128.133 270.000,126.800 270.167,126.800 270.400 C 126.800 270.620,126.080 270.800,125.200 270.800 C 124.320 270.800,123.600 270.980,123.600 271.200 C 123.600 271.429,122.400 271.600,120.800 271.600 C 119.200 271.600,118.000 271.771,118.000 272.000 C 118.000 272.226,116.867 272.400,115.400 272.400 C 113.933 272.400,112.800 272.574,112.800 272.800 C 112.800 273.037,111.333 273.200,109.200 273.200 C 107.067 273.200,105.600 273.363,105.600 273.600 C 105.600 273.837,104.133 274.000,102.000 274.000 C 99.867 274.000,98.400 274.163,98.400 274.400 C 98.400 274.642,96.667 274.800,94.000 274.800 C 91.333 274.800,89.600 274.958,89.600 275.200 C 89.600 275.455,86.200 275.600,80.200 275.600 C 74.200 275.600,70.800 275.745,70.800 276.000 C 70.800 276.222,69.733 276.400,68.400 276.400 C 67.067 276.400,66.000 276.578,66.000 276.800 C 66.000 277.020,65.542 277.200,64.982 277.200 C 63.949 277.200,62.000 278.783,62.000 279.621 C 62.000 279.873,61.460 280.583,60.800 281.200 C 59.371 282.535,59.271 283.201,60.500 283.196 C 61.168 283.193,61.571 282.784,62.064 281.610 C 63.608 277.935,65.366 277.482,80.800 276.786 C 90.645 276.342,100.541 275.530,109.400 274.440 C 111.160 274.223,114.130 273.859,116.000 273.630 C 117.870 273.401,120.480 273.031,121.800 272.808 C 123.120 272.585,125.370 272.207,126.800 271.969 C 128.230 271.731,130.300 271.382,131.400 271.194 C 137.634 270.128,139.174 270.293,141.944 272.322 C 144.806 274.420,144.781 274.207,144.791 296.913 C 144.801 320.425,144.892 319.851,140.800 322.344 L 139.400 323.197 103.204 323.199 C 62.440 323.200,64.751 323.369,62.760 320.236 C 61.210 317.798,61.265 318.442,61.166 301.343 C 61.116 292.574,60.916 285.085,60.723 284.700 C 59.737 282.735,59.600 284.730,59.600 301.000 C 59.600 312.067,59.740 318.000,60.000 318.000 C 60.220 318.000,60.400 318.360,60.400 318.800 C 60.400 319.240,60.580 319.600,60.800 319.600 C 61.020 319.600,61.200 319.883,61.200 320.229 C 61.200 321.037,62.163 322.000,62.971 322.000 C 63.333 322.000,63.600 322.339,63.600 322.800 C 63.600 323.422,63.867 323.600,64.800 323.600 C 65.460 323.600,66.000 323.780,66.000 324.000 C 66.000 324.264,78.667 324.400,103.200 324.400 C 127.733 324.400,140.400 324.264,140.400 324.000 C 140.400 323.780,140.720 323.600,141.112 323.600 C 141.503 323.600,142.083 323.240,142.400 322.800 C 142.717 322.360,143.297 322.000,143.688 322.000 C 144.133 322.000,144.400 321.700,144.400 321.200 C 144.400 320.760,144.580 320.400,144.800 320.400 C 145.020 320.400,145.200 320.040,145.200 319.600 C 145.200 319.160,145.380 318.800,145.600 318.800 C 145.820 318.800,146.000 318.080,146.000 317.200 C 146.000 316.320,146.180 315.600,146.400 315.600 C 146.626 315.600,146.800 314.467,146.800 313.000 C 146.800 311.533,146.626 310.400,146.400 310.400 C 146.139 310.400,146.000 304.200,146.000 292.600 C 146.000 281.000,145.861 274.800,145.600 274.800 C 145.380 274.800,145.200 274.525,145.200 274.189 C 145.200 273.158,141.740 270.000,140.611 270.000 C 140.055 270.000,139.600 269.820,139.600 269.600 C 139.600 269.367,138.267 269.200,136.400 269.200 C 134.533 269.200,133.200 269.367,133.200 269.600 M332.628 320.666 C 331.984 321.441,331.039 322.233,330.528 322.427 C 329.146 322.953,329.406 323.600,331.000 323.600 C 331.770 323.600,332.400 323.420,332.400 323.200 C 332.400 322.980,332.760 322.800,333.200 322.800 C 333.733 322.800,334.000 322.533,334.000 322.000 C 334.000 321.560,334.180 321.200,334.400 321.200 C 334.620 321.200,334.800 320.750,334.800 320.200 C 334.800 318.825,334.021 318.993,332.628 320.666 M357.600 336.800 C 357.600 337.600,357.800 338.000,358.200 338.000 C 358.600 338.000,358.800 337.600,358.800 336.800 C 358.800 336.000,358.600 335.600,358.200 335.600 C 357.800 335.600,357.600 336.000,357.600 336.800 M37.435 337.544 C 37.120 338.053,38.121 339.993,38.700 339.997 C 38.975 339.999,39.200 339.730,39.200 339.400 C 39.200 339.070,38.947 338.800,38.637 338.800 C 38.272 338.800,38.148 338.520,38.284 338.000 C 38.490 337.214,37.851 336.871,37.435 337.544 M356.877 339.230 C 356.956 339.466,357.191 339.660,357.400 339.660 C 357.609 339.660,357.845 339.466,357.923 339.230 C 358.002 338.994,357.767 338.800,357.400 338.800 C 357.033 338.800,356.798 338.994,356.877 339.230 M15.600 341.600 C 15.600 342.260,15.765 342.800,15.967 342.800 C 16.456 342.800,16.712 341.965,16.488 341.100 C 16.194 339.965,15.600 340.299,15.600 341.600 M39.099 340.634 C 38.767 340.967,40.437 342.800,41.072 342.800 C 41.362 342.800,41.600 342.440,41.600 342.000 C 41.600 341.467,41.333 341.200,40.800 341.200 C 40.360 341.200,40.000 341.020,40.000 340.800 C 40.000 340.361,39.470 340.264,39.099 340.634 M352.000 342.800 C 352.000 343.333,352.267 343.600,352.800 343.600 C 353.333 343.600,353.600 343.333,353.600 342.800 C 353.600 342.267,353.333 342.000,352.800 342.000 C 352.267 342.000,352.000 342.267,352.000 342.800 M42.000 343.200 C 42.000 343.420,42.270 343.600,42.600 343.600 C 42.930 343.600,43.200 343.420,43.200 343.200 C 43.200 342.980,42.930 342.800,42.600 342.800 C 42.270 342.800,42.000 342.980,42.000 343.200 M378.800 344.200 C 378.800 344.822,379.027 345.200,379.400 345.200 C 379.773 345.200,380.000 344.822,380.000 344.200 C 380.000 343.578,379.773 343.200,379.400 343.200 C 379.027 343.200,378.800 343.578,378.800 344.200 M16.400 344.581 C 16.400 345.733,17.182 347.600,17.664 347.600 C 17.849 347.600,18.000 347.240,18.000 346.800 C 18.000 346.360,17.812 346.000,17.582 346.000 C 17.353 346.000,17.194 345.775,17.230 345.500 C 17.369 344.427,17.182 343.600,16.800 343.600 C 16.580 343.600,16.400 344.042,16.400 344.581 M44.000 344.000 C 44.000 344.266,95.533 344.400,197.800 344.400 C 300.067 344.400,351.600 344.266,351.600 344.000 C 351.600 343.734,300.067 343.600,197.800 343.600 C 95.533 343.600,44.000 343.734,44.000 344.000 M378.267 345.867 C 378.120 346.013,378.000 346.463,378.000 346.867 C 378.000 347.270,377.820 347.600,377.600 347.600 C 377.380 347.600,377.200 347.870,377.200 348.200 C 377.200 349.184,378.163 348.874,378.700 347.717 C 379.468 346.064,379.202 344.931,378.267 345.867 M376.400 349.800 C 376.400 350.130,376.670 350.400,377.000 350.400 C 377.330 350.400,377.600 350.130,377.600 349.800 C 377.600 349.470,377.330 349.200,377.000 349.200 C 376.670 349.200,376.400 349.470,376.400 349.800 M18.400 350.000 C 18.400 350.220,18.670 350.400,19.000 350.400 C 19.330 350.400,19.600 350.220,19.600 350.000 C 19.600 349.780,19.330 349.600,19.000 349.600 C 18.670 349.600,18.400 349.780,18.400 350.000 M19.200 351.400 C 19.200 351.730,19.470 352.000,19.800 352.000 C 20.130 352.000,20.400 351.730,20.400 351.400 C 20.400 351.070,20.130 350.800,19.800 350.800 C 19.470 350.800,19.200 351.070,19.200 351.400 M375.600 351.400 C 375.600 351.730,375.420 352.000,375.200 352.000 C 374.980 352.000,374.800 352.180,374.800 352.400 C 374.800 352.982,375.568 352.890,376.229 352.229 C 376.972 351.485,376.958 350.800,376.200 350.800 C 375.870 350.800,375.600 351.070,375.600 351.400 M20.800 353.606 C 20.800 354.137,26.663 360.000,27.194 360.000 C 27.417 360.000,27.600 359.730,27.600 359.400 C 27.600 359.070,27.428 358.800,27.218 358.800 C 27.008 358.800,26.386 358.350,25.836 357.800 C 25.286 357.250,24.648 356.800,24.418 356.800 C 24.188 356.800,24.000 356.648,24.000 356.462 C 24.000 356.276,23.550 355.601,23.000 354.962 C 22.451 354.323,22.001 353.665,22.000 353.500 C 22.000 353.335,21.730 353.200,21.400 353.200 C 21.070 353.200,20.800 353.383,20.800 353.606 M371.100 356.732 C 369.615 358.220,368.400 359.564,368.400 359.718 C 368.400 360.478,369.447 359.768,371.807 357.407 C 374.176 355.039,374.892 353.978,374.100 354.013 C 373.935 354.020,372.585 355.244,371.100 356.732 M28.800 361.200 C 28.800 361.420,29.070 361.600,29.400 361.600 C 29.730 361.600,30.000 361.420,30.000 361.200 C 30.000 360.980,29.730 360.800,29.400 360.800 C 29.070 360.800,28.800 360.980,28.800 361.200 M366.000 361.200 C 366.000 361.420,366.270 361.600,366.600 361.600 C 366.930 361.600,367.200 361.420,367.200 361.200 C 367.200 360.980,366.930 360.800,366.600 360.800 C 366.270 360.800,366.000 360.980,366.000 361.200 M363.300 362.426 C 361.493 363.273,361.078 364.000,362.400 364.000 C 362.840 364.000,363.200 363.736,363.200 363.413 C 363.200 363.059,363.435 362.915,363.790 363.051 C 364.322 363.256,365.600 362.393,365.600 361.829 C 365.600 361.454,365.092 361.586,363.300 362.426 M35.467 363.867 C 35.006 364.327,35.175 364.800,35.800 364.800 C 36.130 364.800,36.400 364.530,36.400 364.200 C 36.400 363.575,35.927 363.406,35.467 363.867 M359.856 363.878 C 359.405 364.328,359.581 364.800,360.200 364.800 C 360.530 364.800,360.800 364.631,360.800 364.424 C 360.800 363.919,360.175 363.558,359.856 363.878 M37.867 364.667 C 37.323 365.211,37.629 365.600,38.600 365.600 C 39.717 365.600,39.941 365.016,38.967 364.643 C 38.184 364.342,38.191 364.342,37.867 364.667 M357.300 364.665 C 356.372 365.039,356.792 365.600,358.000 365.600 C 358.800 365.600,359.200 365.400,359.200 365.000 C 359.200 364.415,358.308 364.258,357.300 364.665 M42.567 365.567 C 42.475 365.658,42.400 365.883,42.400 366.067 C 42.400 366.250,112.780 366.400,198.800 366.400 C 323.653 366.400,355.200 366.299,355.200 365.900 C 355.200 365.423,43.043 365.090,42.567 365.567 M219.286 376.602 C 219.438 381.675,220.166 381.744,220.314 376.700 C 220.412 373.372,220.337 372.800,219.800 372.800 C 219.264 372.800,219.188 373.363,219.286 376.602 M319.700 375.398 C 318.639 376.604,319.491 377.366,320.629 376.229 C 320.943 375.914,321.200 375.464,321.200 375.229 C 321.200 374.622,320.293 374.724,319.700 375.398 M317.600 377.738 C 317.600 378.034,317.240 378.602,316.800 379.000 C 315.940 379.778,315.729 380.800,316.429 380.800 C 317.066 380.800,318.000 379.747,318.000 379.029 C 318.000 378.683,318.180 378.400,318.400 378.400 C 318.620 378.400,318.800 378.130,318.800 377.800 C 318.800 377.470,318.530 377.200,318.200 377.200 C 317.870 377.200,317.600 377.442,317.600 377.738 M312.900 382.147 C 312.185 382.883,311.600 383.661,311.600 383.876 C 311.600 384.272,309.395 386.400,308.985 386.400 C 308.590 386.400,306.800 388.351,306.800 388.782 C 306.800 389.551,307.668 389.212,308.800 388.000 C 309.417 387.340,310.132 386.800,310.389 386.800 C 310.990 386.800,312.000 385.795,312.000 385.197 C 312.000 384.944,312.732 384.034,313.627 383.174 C 314.522 382.314,315.141 381.428,315.003 381.205 C 314.611 380.571,314.293 380.713,312.900 382.147 M304.900 390.198 C 303.839 391.404,304.691 392.166,305.829 391.029 C 306.143 390.714,306.400 390.264,306.400 390.029 C 306.400 389.422,305.493 389.524,304.900 390.198 M302.800 392.600 C 302.800 392.930,303.070 393.200,303.400 393.200 C 303.730 393.200,304.000 392.930,304.000 392.600 C 304.000 392.270,303.730 392.000,303.400 392.000 C 303.070 392.000,302.800 392.270,302.800 392.600 M300.900 394.198 C 299.839 395.404,300.691 396.166,301.829 395.029 C 302.143 394.714,302.400 394.264,302.400 394.029 C 302.400 393.422,301.493 393.524,300.900 394.198 M298.500 396.598 C 297.439 397.804,298.291 398.566,299.429 397.429 C 299.743 397.114,300.000 396.664,300.000 396.429 C 300.000 395.822,299.093 395.924,298.500 396.598 M296.400 399.000 C 296.400 399.330,296.670 399.600,297.000 399.600 C 297.330 399.600,297.600 399.330,297.600 399.000 C 297.600 398.670,297.330 398.400,297.000 398.400 C 296.670 398.400,296.400 398.670,296.400 399.000 M294.500 400.598 C 293.439 401.804,294.291 402.566,295.429 401.429 C 295.743 401.114,296.000 400.664,296.000 400.429 C 296.000 399.822,295.093 399.924,294.500 400.598 M292.100 402.998 C 291.039 404.204,291.891 404.966,293.029 403.829 C 293.343 403.514,293.600 403.064,293.600 402.829 C 293.600 402.222,292.693 402.324,292.100 402.998 M290.000 405.400 C 290.000 405.730,290.270 406.000,290.600 406.000 C 290.930 406.000,291.200 405.730,291.200 405.400 C 291.200 405.070,290.930 404.800,290.600 404.800 C 290.270 404.800,290.000 405.070,290.000 405.400 M288.100 406.998 C 287.039 408.204,287.891 408.966,289.029 407.829 C 289.343 407.514,289.600 407.064,289.600 406.829 C 289.600 406.222,288.693 406.324,288.100 406.998 M285.680 409.280 C 285.084 409.876,285.053 410.800,285.629 410.800 C 286.182 410.800,287.200 409.782,287.200 409.229 C 287.200 408.653,286.276 408.684,285.680 409.280 M282.407 412.608 C 281.359 413.637,281.128 414.088,281.474 414.434 C 281.952 414.912,284.800 412.498,284.800 411.613 C 284.800 410.829,283.796 411.247,282.407 412.608 M279.900 415.371 C 279.124 415.944,278.962 416.800,279.629 416.800 C 279.864 416.800,280.339 416.518,280.683 416.174 C 281.497 415.360,280.834 414.681,279.900 415.371 M276.100 419.010 C 274.430 420.794,275.288 421.549,277.018 419.818 C 277.558 419.278,278.000 418.648,278.000 418.418 C 278.000 417.705,277.043 418.003,276.100 419.010 M273.500 421.757 C 272.723 422.346,272.563 423.200,273.229 423.200 C 273.782 423.200,274.800 422.182,274.800 421.629 C 274.800 421.062,274.358 421.106,273.500 421.757 M220.300 424.632 C 219.664 425.271,219.949 437.600,220.600 437.600 C 221.103 437.600,221.196 436.777,221.177 432.500 C 221.153 427.180,220.812 424.118,220.300 424.632 M269.300 425.798 C 268.687 426.495,268.651 427.200,269.229 427.200 C 269.782 427.200,270.800 426.182,270.800 425.629 C 270.800 425.022,269.893 425.124,269.300 425.798 M266.500 428.610 C 264.830 430.394,265.688 431.149,267.418 429.418 C 267.958 428.878,268.400 428.248,268.400 428.018 C 268.400 427.305,267.443 427.603,266.500 428.610 M258.500 436.654 C 255.805 439.403,253.600 441.821,253.600 442.027 C 253.600 442.972,254.756 442.052,259.404 437.404 C 262.152 434.656,264.400 432.226,264.400 432.004 C 264.400 430.954,263.023 432.039,258.500 436.654 M220.800 440.367 C 220.800 441.220,220.993 441.600,221.427 441.600 C 221.871 441.600,222.016 441.289,221.927 440.531 C 221.742 438.974,220.800 438.836,220.800 440.367 M221.677 442.430 C 221.755 442.667,221.991 442.860,222.200 442.860 C 222.409 442.860,222.645 442.667,222.723 442.430 C 222.802 442.194,222.567 442.000,222.200 442.000 C 221.833 442.000,221.598 442.194,221.677 442.430 M251.475 443.922 C 250.330 445.116,250.141 445.600,250.818 445.600 C 251.361 445.600,253.200 443.761,253.200 443.218 C 253.200 442.506,252.595 442.753,251.475 443.922 M222.477 444.030 C 222.555 444.267,222.791 444.460,223.000 444.460 C 223.209 444.460,223.445 444.267,223.523 444.030 C 223.602 443.794,223.367 443.600,223.000 443.600 C 222.633 443.600,222.398 443.794,222.477 444.030 M223.200 445.800 C 223.200 446.130,223.470 446.400,223.800 446.400 C 224.130 446.400,224.400 446.130,224.400 445.800 C 224.400 445.470,224.130 445.200,223.800 445.200 C 223.470 445.200,223.200 445.470,223.200 445.800 M246.092 448.400 C 245.620 448.840,245.046 449.200,244.817 449.200 C 244.588 449.200,244.400 449.380,244.400 449.600 C 244.400 449.820,244.670 450.000,245.000 450.000 C 245.330 450.000,245.600 449.820,245.600 449.600 C 245.600 449.380,245.883 449.200,246.229 449.200 C 246.974 449.200,248.069 448.203,247.714 447.848 C 247.314 447.447,247.001 447.553,246.092 448.400 M227.200 449.600 C 227.200 449.820,227.470 450.000,227.800 450.000 C 228.130 450.000,228.400 449.820,228.400 449.600 C 228.400 449.380,228.130 449.200,227.800 449.200 C 227.470 449.200,227.200 449.380,227.200 449.600 M228.800 450.186 C 228.800 450.335,229.057 450.714,229.371 451.029 C 230.064 451.721,242.400 451.883,242.400 451.200 C 242.400 450.980,242.265 450.800,242.100 450.799 C 236.918 450.782,230.029 450.472,229.500 450.232 C 229.115 450.057,228.800 450.037,228.800 450.186 M242.800 450.400 C 242.800 450.620,243.070 450.800,243.400 450.800 C 243.730 450.800,244.000 450.620,244.000 450.400 C 244.000 450.180,243.730 450.000,243.400 450.000 C 243.070 450.000,242.800 450.180,242.800 450.400 " stroke="none" fill="#e0dfd0" fill-rule="evenodd"></path></g></svg>